<?xml version="1.0" encoding="UTF-8"?>
<svg width="54px" height="70px" viewBox="0 0 54 70" version="1.1" xmlns="http://www.w3.org/2000/svg" xmlns:xlink="http://www.w3.org/1999/xlink">
    <title>Untitled</title>
    <g id="Page-1" stroke="none" stroke-width="1" fill="none" fill-rule="evenodd">
        <path d="M23.8475387,13.2205428 C24.7275653,13.0535634 25.6712923,13.2223028 26.4701309,13.7663394 C26.8328285,14.013349 27.145841,14.3263614 27.3928505,14.689059 L27.3928505,14.689059 L55.5473677,56.0298691 C56.0914043,56.8287077 56.2601437,57.7724347 56.0931644,58.6524613 C55.926185,59.5324878 55.4234867,60.3488139 54.6246481,60.8928505 C54.0437865,61.2884373 53.3572897,61.5 52.6545172,61.5 L52.6545172,61.5 L-3.65451719,61.5 C-4.6210155,61.5 -5.4960155,61.1082492 -6.12939092,60.4748737 C-6.76276635,59.8414983 -7.15451719,58.9664983 -7.15451719,58 C-7.15451719,57.2972275 -6.9429545,56.6107307 -6.54736769,56.0298691 L-6.54736769,56.0298691 L21.6071495,14.689059 C22.1511861,13.8902204 22.9675122,13.3875222 23.8475387,13.2205428 Z" id="Triangle" stroke="#FDFDFD" stroke-width="5" transform="translate(24.500000, 35.000000) rotate(-90.000000) translate(-24.500000, -35.000000) "></path>
    </g>
</svg>